<svg xmlns="http://www.w3.org/2000/svg" viewBox="0 0 92.804077 312.37338" width="92.804" height="312.373"><path d="M92.804 72.842c0-6.286-1.871-12.518-5.412-18.025-7.306-11.352-11.167-24.924-11.167-39.247V5.629A5.63 5.63 0 0 0 70.596 0H22.209a5.63 5.63 0 0 0-5.63 5.629v9.941c0 14.324-3.86 27.895-11.167 39.25C1.872 60.323 0 66.555 0 72.842c0 9.492 4.122 18.426 11.65 25.43v44.017c0 19.164 15.588 34.755 34.749 34.755 19.164 0 34.755-15.59 34.755-34.755V98.273c7.528-7.005 11.65-15.938 11.65-25.431zM69.896 142.29c0 12.956-10.541 23.497-23.497 23.497-12.953 0-23.49-10.541-23.49-23.497V92.11c0-6.38 2.55-12.304 6.872-16.623 1.274 8.027 8.24 14.184 16.62 14.184 8.375 0 15.338-6.15 16.618-14.169 4.435 4.439 6.877 10.336 6.877 16.607v50.18zM40.828 72.84V50.438c0-3.072 2.5-5.572 5.572-5.572 3.073 0 5.573 2.5 5.573 5.572v22.404c0 3.073-2.5 5.573-5.573 5.573a5.578 5.578 0 0 1-5.572-5.573zm38.752 8.897c-1.65-5.302-4.568-10.162-8.607-14.201a34.654 34.654 0 0 0-7.742-5.829V50.438c0-9.28-7.55-16.83-16.83-16.83-9.28 0-16.83 7.55-16.83 16.83v11.257a34.626 34.626 0 0 0-16.348 20.044c-1.29-2.834-1.966-5.834-1.966-8.896 0-4.181 1.219-8.196 3.622-11.932 8.477-13.173 12.958-28.851 12.958-45.34v-4.313h37.13v4.312c0 16.489 4.48 32.167 12.957 45.339 2.403 3.737 3.622 7.752 3.622 11.933 0 3.062-.677 6.062-1.966 8.895z" fill="#00f"/><path d="M46.4 119.636c-8.29 0-15.037 6.746-15.037 15.038v7.617c0 8.291 6.746 15.037 15.038 15.037s15.038-6.746 15.038-15.037v-7.617c0-8.292-6.747-15.038-15.038-15.038zm3.78 22.655a3.784 3.784 0 0 1-3.78 3.78 3.784 3.784 0 0 1-3.779-3.78v-7.617a3.784 3.784 0 0 1 3.78-3.78 3.784 3.784 0 0 1 3.78 3.78zM28.48 191.362h18.818a5.63 5.63 0 0 0 0-11.258H28.48a5.63 5.63 0 0 0 0 11.258zM64.325 193.579h-18.82a5.63 5.63 0 0 0 0 11.258h18.82a5.63 5.63 0 0 0 0-11.258zM28.48 218.311h18.818a5.63 5.63 0 0 0 0-11.258H28.48a5.63 5.63 0 0 0 0 11.258zM64.325 220.529h-18.82a5.63 5.63 0 0 0 0 11.258h18.82a5.63 5.63 0 0 0 0-11.258zM52.927 239.633a5.63 5.63 0 0 0-5.629-5.629H28.48a5.63 5.63 0 0 0 0 11.258H47.3a5.63 5.63 0 0 0 5.628-5.629zM64.325 247.48h-18.82a5.63 5.63 0 0 0 0 11.257h18.82a5.63 5.63 0 0 0 0-11.258zM52.927 266.413a5.63 5.63 0 0 0-5.629-5.629H28.48a5.63 5.63 0 0 0 0 11.258H47.3a5.63 5.63 0 0 0 5.628-5.629zM64.325 274.26h-18.82a5.63 5.63 0 0 0 0 11.258h18.82a5.63 5.63 0 0 0 0-11.258zM52.927 293.27a5.63 5.63 0 0 0-5.629-5.63H28.48a5.63 5.63 0 0 0 0 11.258H47.3a5.63 5.63 0 0 0 5.628-5.629zM64.325 301.115h-18.82a5.63 5.63 0 0 0 0 11.258h18.82a5.63 5.63 0 0 0 0-11.258z" fill="#00f"/></svg>